<svg width="189" height="47" viewBox="0 0 189 47" fill="none" xmlns="http://www.w3.org/2000/svg">
  <g filter="url(#filter0_d)">
    <path d="M71.8938 36H54.7356V11.4932H59.6403V31.0952H71.8938V36ZM97.089 23.8491C97.089 25.0112 96.9352 26.1335 96.6276 27.2158C96.3313 28.2868 95.9098 29.2951 95.3629 30.2407C94.816 31.175 94.1552 32.0295 93.3805 32.8042C92.6057 33.5789 91.7512 34.2454 90.817 34.8037C89.8828 35.3506 88.8745 35.7721 87.7921 36.0684C86.7097 36.376 85.5875 36.5298 84.4254 36.5298C83.2633 36.5298 82.1411 36.376 81.0587 36.0684C79.9877 35.7721 78.9794 35.3506 78.0338 34.8037C77.0996 34.2454 76.2451 33.5789 75.4703 32.8042C74.6956 32.0295 74.0291 31.175 73.4708 30.2407C72.9239 29.2951 72.4967 28.2868 72.1891 27.2158C71.8928 26.1335 71.7447 25.0112 71.7447 23.8491C71.7447 22.687 71.8928 21.5648 72.1891 20.4824C72.4967 19.4001 72.9239 18.3918 73.4708 17.4575C74.0291 16.5233 74.6956 15.6688 75.4703 14.894C76.2451 14.1193 77.0996 13.4585 78.0338 12.9116C78.9794 12.3647 79.9877 11.9432 81.0587 11.647C82.1411 11.3394 83.2633 11.1855 84.4254 11.1855C85.5875 11.1855 86.7097 11.3394 87.7921 11.647C88.8745 11.9432 89.8828 12.3647 90.817 12.9116C91.7512 13.4585 92.6057 14.1193 93.3805 14.894C94.1552 15.6688 94.816 16.5233 95.3629 17.4575C95.9098 18.3918 96.3313 19.4001 96.6276 20.4824C96.9352 21.5648 97.089 22.687 97.089 23.8491ZM92.2184 23.8491C92.2184 22.7782 92.0133 21.7699 91.6031 20.8242C91.193 19.8672 90.6347 19.0412 89.9283 18.3462C89.2333 17.6398 88.4073 17.0815 87.4503 16.6714C86.5047 16.2612 85.4964 16.0562 84.4254 16.0562C83.343 16.0562 82.329 16.2612 81.3834 16.6714C80.4378 17.0815 79.6118 17.6398 78.9054 18.3462C78.199 19.0412 77.6407 19.8672 77.2306 20.8242C76.8204 21.7699 76.6153 22.7782 76.6153 23.8491C76.6153 24.9201 76.8204 25.9284 77.2306 26.874C77.6407 27.8083 78.199 28.6286 78.9054 29.335C79.6118 30.0413 80.4378 30.5996 81.3834 31.0098C82.329 31.4199 83.343 31.625 84.4254 31.625C85.4964 31.625 86.5047 31.4199 87.4503 31.0098C88.4073 30.5996 89.2333 30.0413 89.9283 29.335C90.6347 28.6286 91.193 27.8083 91.6031 26.874C92.0133 25.9284 92.2184 24.9201 92.2184 23.8491ZM120.17 36H115.128L125.28 11.4932H130.321L120.17 36Z" fill="#A259FF"/>
    <path d="M103.537 36H98.4951L108.646 11.4932H113.688L103.537 36ZM152.56 33.522C151.421 34.4904 150.15 35.2367 148.749 35.7607C147.347 36.2734 145.889 36.5298 144.374 36.5298C143.212 36.5298 142.089 36.376 141.007 36.0684C139.936 35.7721 138.934 35.3506 137.999 34.8037C137.065 34.2454 136.211 33.5846 135.436 32.8213C134.661 32.0465 134 31.1921 133.453 30.2578C132.907 29.3122 132.479 28.2982 132.172 27.2158C131.875 26.1335 131.727 25.0112 131.727 23.8491C131.727 22.687 131.875 21.5705 132.172 20.4995C132.479 19.4285 132.907 18.4259 133.453 17.4917C134 16.5461 134.661 15.6916 135.436 14.9282C136.211 14.1535 137.065 13.4927 137.999 12.9458C138.934 12.3989 139.936 11.9774 141.007 11.6812C142.089 11.3735 143.212 11.2197 144.374 11.2197C145.889 11.2197 147.347 11.4818 148.749 12.0059C150.15 12.5186 151.421 13.2591 152.56 14.2275L149.996 18.5C149.256 17.748 148.401 17.1613 147.433 16.7397C146.464 16.3068 145.445 16.0903 144.374 16.0903C143.303 16.0903 142.295 16.2954 141.349 16.7056C140.415 17.1157 139.594 17.674 138.888 18.3804C138.182 19.0754 137.623 19.8957 137.213 20.8413C136.803 21.7756 136.598 22.7782 136.598 23.8491C136.598 24.9315 136.803 25.9455 137.213 26.8911C137.623 27.8368 138.182 28.6628 138.888 29.3691C139.594 30.0755 140.415 30.6338 141.349 31.0439C142.295 31.4541 143.303 31.6592 144.374 31.6592C144.989 31.6592 145.587 31.5851 146.168 31.437C146.749 31.2889 147.302 31.0838 147.826 30.8218V23.8491H152.56V33.522ZM179.823 23.8491C179.823 25.0112 179.669 26.1335 179.362 27.2158C179.065 28.2868 178.644 29.2951 178.097 30.2407C177.55 31.175 176.889 32.0295 176.114 32.8042C175.34 33.5789 174.485 34.2454 173.551 34.8037C172.617 35.3506 171.608 35.7721 170.526 36.0684C169.444 36.376 168.321 36.5298 167.159 36.5298C165.997 36.5298 164.875 36.376 163.793 36.0684C162.722 35.7721 161.713 35.3506 160.768 34.8037C159.834 34.2454 158.979 33.5789 158.204 32.8042C157.43 32.0295 156.763 31.175 156.205 30.2407C155.658 29.2951 155.231 28.2868 154.923 27.2158C154.627 26.1335 154.479 25.0112 154.479 23.8491C154.479 22.687 154.627 21.5648 154.923 20.4824C155.231 19.4001 155.658 18.3918 156.205 17.4575C156.763 16.5233 157.43 15.6688 158.204 14.894C158.979 14.1193 159.834 13.4585 160.768 12.9116C161.713 12.3647 162.722 11.9432 163.793 11.647C164.875 11.3394 165.997 11.1855 167.159 11.1855C168.321 11.1855 169.444 11.3394 170.526 11.647C171.608 11.9432 172.617 12.3647 173.551 12.9116C174.485 13.4585 175.34 14.1193 176.114 14.894C176.889 15.6688 177.55 16.5233 178.097 17.4575C178.644 18.3918 179.065 19.4001 179.362 20.4824C179.669 21.5648 179.823 22.687 179.823 23.8491ZM174.952 23.8491C174.952 22.7782 174.747 21.7699 174.337 20.8242C173.927 19.8672 173.369 19.0412 172.662 18.3462C171.967 17.6398 171.141 17.0815 170.184 16.6714C169.239 16.2612 168.23 16.0562 167.159 16.0562C166.077 16.0562 165.063 16.2612 164.117 16.6714C163.172 17.0815 162.346 17.6398 161.639 18.3462C160.933 19.0412 160.375 19.8672 159.965 20.8242C159.554 21.7699 159.349 22.7782 159.349 23.8491C159.349 24.9201 159.554 25.9284 159.965 26.874C160.375 27.8083 160.933 28.6286 161.639 29.335C162.346 30.0413 163.172 30.5996 164.117 31.0098C165.063 31.4199 166.077 31.625 167.159 31.625C168.23 31.625 169.239 31.4199 170.184 31.0098C171.141 30.5996 171.967 30.0413 172.662 29.335C173.369 28.6286 173.927 27.8083 174.337 26.874C174.747 25.9284 174.952 24.9201 174.952 23.8491Z" fill="#F5672A"/>
  </g>
  <path fill-rule="evenodd" clip-rule="evenodd" d="M23.6253 4.35181H0L9.44138e-05 4.3519V27.6262L9.94759 37.4259V14.1515L9.94759 14.1515H33.5728L23.6253 4.35181Z" fill="#7C2EE0" fill-opacity="0.29"/>
  <path fill-rule="evenodd" clip-rule="evenodd" d="M9.94744 37.426H33.5728L33.5727 37.4259V14.1517L23.6252 4.35195L23.6252 27.6263L-5.72205e-05 27.6263L9.94744 37.426Z" fill="#F24E1E"/>
  <defs>
    <filter id="filter0_d" x="54.7354" y="11.1855" width="134.087" height="33.3442" filterUnits="userSpaceOnUse" color-interpolation-filters="sRGB">
      <feFlood flood-opacity="0" result="BackgroundImageFix"/>
      <feColorMatrix in="SourceAlpha" type="matrix" values="0 0 0 0 0 0 0 0 0 0 0 0 0 0 0 0 0 0 127 0"/>
      <feOffset dx="5" dy="4"/>
      <feGaussianBlur stdDeviation="2"/>
      <feColorMatrix type="matrix" values="0 0 0 0 0.25247 0 0 0 0 0.0352778 0 0 0 0 0.529167 0 0 0 0.35 0"/>
      <feBlend mode="normal" in2="BackgroundImageFix" result="effect1_dropShadow"/>
      <feBlend mode="normal" in="SourceGraphic" in2="effect1_dropShadow" result="shape"/>
    </filter>
  </defs>
</svg>
